<svg id="SVGDoc" width="76" height="288" xmlns="http://www.w3.org/2000/svg" version="1.1" xmlns:xlink="http://www.w3.org/1999/xlink" xmlns:avocode="https://avocode.com/" viewBox="0 0 76 288"><defs><path d="M1837.49969,263.99556c44.45892,0 90.50018,66.73417 90.50018,140.41891c0,73.687 -46.04126,152.58145 -90.50018,152.58145c-44.45877,0 -80.49988,-85.89553 -80.49988,-159.58027c0,-73.68549 36.04111,-133.42009 80.49988,-133.42009z" id="Path-0"/><path d="M1853.43796,552.69621l12.74078,3.63323c0.77576,0.22015 1.56662,-0.23523 1.76346,-1.01857c0.19714,-0.7841 -0.2739,-1.59835 -1.05118,-1.82001l-9.34204,-2.66367l-1.4856,-2.57319l2.36465,-9.42122c0.19714,-0.7841 -0.27344,-1.5991 -1.05072,-1.82001c-0.38879,-0.11158 -0.78033,-0.05353 -1.09985,0.13043c-0.31952,0.18547 -0.56564,0.49458 -0.66437,0.88814l-3.22556,12.84712c-0.19806,0.78259 0.27283,1.59835 1.05042,1.81775z" id="Path-1"/><clipPath id="ClipPath1066"><use xlink:href="#Path-0" fill="#ffffff"/></clipPath></defs><desc>Generated with Avocode.</desc><g transform="matrix(1,0,0,1,-1852,-269)"><g><title>Forma 1 copy 23</title><use xlink:href="#Path-1" fill="#f1ad36" fill-opacity="1"/></g><g><title>Ellipse 11</title><use xlink:href="#Path-0" fill-opacity="0" fill="#ffffff" stroke-dashoffset="0" stroke-dasharray="" stroke-linejoin="miter" stroke-linecap="butt" stroke-opacity="1" stroke="#f1ad36" stroke-miterlimit="50" stroke-width="6" clip-path="url(&quot;#ClipPath1066&quot;)"/></g></g></svg>