<svg id="SVGDoc" width="14" height="13" xmlns="http://www.w3.org/2000/svg" version="1.1" xmlns:xlink="http://www.w3.org/1999/xlink" xmlns:avocode="https://avocode.com/" viewBox="0 0 14 13"><defs><path d="M701.04767,430.92825c-0.12177,0.06258 -0.26733,0.07087 -0.41367,-0.07539l-3.33878,-3.41233c-0.29526,-0.30158 -0.22644,-0.6989 0.11581,-0.94619c0.43732,-0.31665 1.02234,-0.83159 1.51566,-1.58478c0.23117,-0.35284 0.56152,-0.37697 0.78995,-0.02186l0.82336,1.27943c0.22888,0.35511 0.4921,0.79993 0.63339,0.75017c0.05722,-0.02036 0.1268,-0.07012 0.20966,-0.16813l6.69327,-8.41924c0.2626,-0.33023 0.63339,-0.29479 0.82886,0.07916l1.89972,3.64756c0.19516,0.37395 0.08698,0.89116 -0.242,1.15654l-8.60107,6.91739c-0.32852,0.26463 -0.69031,0.68231 -0.91415,0.79767z" id="Path-0"/></defs><desc>Generated with Avocode.</desc><g transform="matrix(1,0,0,1,-697,-418)"><g><title>Forma 1</title><use xlink:href="#Path-0" fill="#4c597f" fill-opacity="1"/></g></g></svg>