<svg id="SVGDoc" width="16" height="22" xmlns="http://www.w3.org/2000/svg" version="1.1" xmlns:xlink="http://www.w3.org/1999/xlink" xmlns:avocode="https://avocode.com/" viewBox="0 0 16 22"><defs><path d="M1658.99994,402.68267v3.82096c0,0.27368 -0.21179,0.49534 -0.47318,0.49534h-15.05356c-0.26138,0 -0.47318,-0.22166 -0.47318,-0.49534v-3.82096c0,-1.83735 1.39755,-3.33693 3.13736,-3.39876c0.01663,-0.00377 2.4353,0.07464 2.79617,-2.64406c-1.17447,-0.85723 -2.03568,-2.42768 -2.27051,-4.32233c-0.04639,-0.0475 -0.08499,-0.10254 -0.11108,-0.16888c-0.09567,-0.24428 -0.17654,-0.50062 -0.24002,-0.76072c-0.3009,-1.23571 -0.20844,-2.51439 0.2597,-3.59855c0.48233,-1.11658 1.30402,-1.89993 2.31384,-2.20527c0.21118,-0.06559 0.43137,-0.10706 0.65613,-0.12515c0.58929,-0.3061 1.21307,-0.4599 1.85608,-0.4599c2.45865,0 4.45862,2.25729 4.45862,5.0333c0,0.72303 -0.1329,1.42042 -0.39505,2.07409c-0.02777,0.06861 -0.06897,0.12817 -0.11887,0.17491c-0.14481,1.21535 -0.55176,2.33646 -1.18301,3.23063c-0.32455,0.46141 -0.69305,0.83989 -1.09268,1.13242c0.35965,2.71267 2.77924,2.63577 2.79587,2.63954c1.73996,0.06182 3.13736,1.56065 3.13736,3.39876zM1647.21695,391.08709c0.51147,-0.56093 0.88409,-1.25305 1.07101,-2.00397c0.06348,-0.25483 0.27481,-0.43955 0.52612,-0.45538c0.25024,-0.01508 0.48035,0.1342 0.57343,0.37848c0.06042,0.15682 0.16113,0.29328 0.2916,0.39431c0.15274,0.12214 0.33493,0.18321 0.52689,0.18321h3.22556c0.57632,0 1.09818,0.24955 1.47385,0.64763c0.00275,-0.06559 0.00458,-0.13345 0.00458,-0.19904c0,-2.22864 -1.57578,-4.04413 -3.51227,-4.04413c-0.52185,0 -1.02936,0.13496 -1.50848,0.39883c-0.06149,0.03317 -0.12939,0.05278 -0.19897,0.05655c-0.18692,0.00829 -0.36926,0.03845 -0.54199,0.09123c-1.54831,0.46895 -2.40707,2.50308 -1.9313,4.55228zM1651.00067,396.35411c1.90536,0 3.45551,-2.27539 3.45551,-5.07175c0,-0.00377 0.00061,-0.00679 0.00061,-0.0098c-0.17548,-0.4109 -0.56885,-0.69739 -1.02524,-0.69739h-3.22556c-0.39749,0 -0.77545,-0.13194 -1.09314,-0.37923c-0.05112,-0.03996 -0.1001,-0.08369 -0.14664,-0.12817c-0.30746,0.77053 -0.77957,1.4634 -1.3768,2.0198c0.12802,1.16484 0.53116,2.22789 1.14716,3.01576c0.63065,0.80596 1.43478,1.25079 2.2641,1.25079zM1648.44818,399.4641l2.48581,3.70486c0.01602,0.02413 0.0386,0.03619 0.06683,0.03619c0.02823,0 0.05081,-0.01206 0.06699,-0.03619l2.48505,-3.70486c-0.70099,-0.56621 -1.203,-1.39102 -1.37619,-2.33495c-0.37781,0.14099 -0.77225,0.21563 -1.17599,0.21563c-0.40695,0 -0.80154,-0.07766 -1.17676,-0.21864c-0.17273,0.94544 -0.67444,1.7695 -1.37573,2.33797zM1658.05344,406.00603v-3.32487c0,-1.32618 -1.03271,-2.40959 -2.30209,-2.40959c-0.01724,0 -0.69321,0 -1.37939,-0.30308l-2.52945,3.77045c-0.19241,0.28574 -0.50705,0.45538 -0.84167,0.45538c-0.33478,0 -0.64926,-0.16964 -0.84167,-0.45538l-2.52991,-3.77422c-0.60165,0.288 -1.36322,0.30685 -1.38046,0.30685c-1.26953,0 -2.30225,1.08341 -2.30225,2.40959v3.32487z" id="Path-0"/></defs><desc>Generated with Avocode.</desc><g transform="matrix(1,0,0,1,-1643,-385)"><g><title>Shape 1 copy 2</title><use xlink:href="#Path-0" fill="#4b587f" fill-opacity="1"/></g></g></svg>