<svg id="SVGDoc" width="17" height="19" xmlns="http://www.w3.org/2000/svg" version="1.1" xmlns:xlink="http://www.w3.org/1999/xlink" xmlns:avocode="https://avocode.com/" viewBox="0 0 17 19"><defs><path d="M1659.48517,476.37344c0.3595,0.44482 0.51483,0.93865 0.45319,1.42871c-0.06119,0.48704 -0.33157,0.93187 -0.78384,1.29301c-0.19653,0.15531 -0.39627,0.30459 -0.59082,0.44482c-0.28549,0.21261 -0.5571,0.40864 -0.79895,0.63029c-0.00519,0.00679 -0.01389,0.0098 -0.01877,0.01659c-0.69794,0.57903 -1.52512,0.81199 -2.46109,0.69815c-0.08102,-0.00754 -0.16968,-0.02262 -0.25421,-0.03619c-1.37863,-0.25408 -2.55829,-0.9085 -3.43597,-1.45284c-2.29401,-1.43852 -4.22379,-3.32638 -5.73807,-5.60252c-1.24664,-1.88485 -2.02576,-3.59931 -2.46445,-5.40499c-0.17883,-0.73584 -0.39215,-1.8479 -0.14954,-2.98937c0.15488,-0.70795 0.52826,-1.28622 1.11038,-1.73255l1.54816,-1.18821c0.00458,-0.00302 0.00458,-0.00302 0.00916,-0.00754c0.45288,-0.32796 0.95627,-0.47121 1.45065,-0.4124c0.49408,0.05655 0.93872,0.31439 1.28403,0.74263c0.23346,0.26765 0.4567,0.55113 0.66925,0.82406c0.10559,0.14174 0.21912,0.28424 0.32944,0.41994l0.97015,1.21233c0.74631,0.92659 0.61096,2.00095 -0.34424,2.72775c-0.12741,0.0965 -0.25513,0.19904 -0.38254,0.29479c-0.33722,0.26086 -0.68405,0.53002 -1.05331,0.78787c0.17975,0.56319 0.4541,1.12789 0.88196,1.81172c0.88745,1.37368 1.85547,2.47217 2.96112,3.36106c0.10834,0.08143 0.23788,0.16813 0.37476,0.25257c0.09476,0.06635 0.19348,0.12892 0.29205,0.19829l1.43692,-1.09095c0.45929,-0.34907 0.9639,-0.50288 1.4621,-0.44332c0.50247,0.06107 0.94955,0.33023 1.29227,0.7758zM1658.61328,477.02786l-1.95816,-2.4405c-0.00366,-0.00528 -0.00366,-0.00528 -0.00732,-0.00905c-0.10864,-0.15003 -0.29587,-0.32796 -0.54703,-0.35963c-0.25513,-0.02865 -0.49423,0.10329 -0.64911,0.22543l-1.55563,1.18067c-0.07736,0.05805 -0.31387,0.23975 -0.65002,0.19979c-0.13397,-0.01659 -0.2594,-0.06182 -0.38879,-0.14551c-0.01511,-0.01131 -0.02991,-0.02488 -0.04517,-0.03468c-0.10849,-0.08595 -0.23773,-0.16888 -0.3746,-0.25634c-0.15213,-0.09952 -0.31189,-0.20281 -0.46494,-0.32419c-1.19965,-0.95901 -2.2467,-2.1442 -3.1958,-3.62042l-0.00351,-0.00528c-0.51971,-0.8331 -0.84427,-1.51919 -1.04645,-2.23543c-0.00244,-0.01282 -0.00504,-0.02337 -0.00763,-0.03619c-0.04471,-0.23071 -0.0676,-0.57375 0.32349,-0.87005c0.00519,-0.00603 0.01373,-0.01282 0.02274,-0.01809c0.39139,-0.26463 0.75531,-0.54208 1.13846,-0.83989c0.13138,-0.0965 0.25909,-0.19678 0.39093,-0.29856c0.48233,-0.36491 0.53101,-0.75394 0.15442,-1.22289l-0.97031,-1.20932c-0.11307,-0.14626 -0.22705,-0.28876 -0.33661,-0.42975c-0.21576,-0.2767 -0.42145,-0.53982 -0.64011,-0.79314c-0.00351,-0.00603 -0.00732,-0.0098 -0.01068,-0.01508c-0.11383,-0.14249 -0.30151,-0.31515 -0.55679,-0.34757c-0.2066,-0.02488 -0.42969,0.05127 -0.65125,0.20884l-1.55106,1.17841c-0.37735,0.28951 -0.60806,0.65216 -0.70679,1.10754c-0.15182,0.71624 -0.11063,1.49582 0.14236,2.5272c0.40863,1.67978 1.14349,3.28868 2.3204,5.08004c1.42807,2.14119 3.24814,3.91671 5.40497,5.27305c0.78918,0.49232 1.84982,1.08492 3.04367,1.3013c0.06012,0.0098 0.12497,0.01885 0.18585,0.02413c0.63202,0.07916 1.13937,-0.06333 1.60248,-0.44181c0.28732,-0.25709 0.58716,-0.48403 0.8812,-0.69513c0.19531,-0.14626 0.37613,-0.27519 0.55511,-0.42221c-0.00458,0.00226 -0.00397,-0.00075 0,0c0.46585,-0.36868 0.51804,-0.7856 0.15167,-1.23571z" id="Path-0"/></defs><desc>Generated with Avocode.</desc><g transform="matrix(1,0,0,1,-1643,-462)"><g><title>Shape 1 copy 3</title><use xlink:href="#Path-0" fill="#4b587f" fill-opacity="1"/></g></g></svg>