<svg id="SVGDoc" width="21" height="28" xmlns="http://www.w3.org/2000/svg" version="1.1" xmlns:xlink="http://www.w3.org/1999/xlink" xmlns:avocode="https://avocode.com/" viewBox="0 0 21 28"><defs><path d="M716.70731,10171.44738l-19.64523,-13.33643c-0.20798,-0.14174 -0.4776,-0.15456 -0.69977,-0.04222c-0.22293,0.11535 -0.3624,0.34304 -0.3624,0.59033v26.67286c0,0.24729 0.13947,0.47498 0.3624,0.59033c0.09888,0.04976 0.20737,0.07615 0.31494,0.07615c0.13489,0 0.26901,-0.03996 0.38483,-0.11837l19.64523,-13.33568c0.18356,-0.12515 0.29266,-0.32872 0.29266,-0.54887c0,-0.2194 -0.10986,-0.42296 -0.29266,-0.54811z" id="Path-0"/><path d="M692,10190v-36h29v36zM716.70731,10171.44738l-19.64523,-13.33643c-0.20798,-0.14174 -0.4776,-0.15456 -0.69977,-0.04222c-0.22293,0.11535 -0.3624,0.34304 -0.3624,0.59033v26.67286c0,0.24729 0.13947,0.47498 0.3624,0.59033c0.09888,0.04976 0.20737,0.07615 0.31494,0.07615c0.13489,0 0.26901,-0.03996 0.38483,-0.11837l19.64523,-13.33568c0.18356,-0.12515 0.29266,-0.32872 0.29266,-0.54887c0,-0.2194 -0.10986,-0.42296 -0.29266,-0.54811z" id="Path-1"/><linearGradient id="LinearGradient1015" gradientUnits="userSpaceOnUse" x1="695.9999389648438" y1="10171.9970703125" x2="716.9999389648438" y2="10171.9931640625"><stop stop-opacity="1" stop-color="#f47b10" offset="0"></stop><stop stop-opacity="1" stop-color="#ffb33b" offset="0.5"></stop><stop stop-opacity="1" stop-color="#f47b10" offset="1"></stop></linearGradient><filter id="Filter1034" width="200%" height="200%" x="-50%" y="-50%"><feGaussianBlur stdDeviation="2 2" result="FeGaussianBlur1035Out" in="SourceGraphic"></feGaussianBlur></filter><mask id="Mask1036"><use xlink:href="#Path-0" fill="#ffffff"/></mask></defs><desc>Generated with Avocode.</desc><g transform="matrix(1,0,0,1,-696,-10158)"><g><title>Forma 1 copy 18</title><use xlink:href="#Path-1" fill="#fd8f25" fill-opacity="0.48" stroke-opacity="0.48" stroke-width="0" stroke="#fd8f25" filter="url(#Filter1034)" mask="url(&quot;#Mask1036&quot;)"/><use xlink:href="#Path-0" fill="#000000" fill-opacity="1"/><use xlink:href="#Path-0" fill="url(#LinearGradient1015)"/><use xlink:href="#Path-1" fill="#fd8f25" fill-opacity="0.48" stroke-opacity="0.48" stroke-width="0" stroke="#fd8f25" filter="url(#Filter1034)" mask="url(&quot;#Mask1036&quot;)"/></g></g></svg>