<svg id="SVGDoc" width="22" height="24" xmlns="http://www.w3.org/2000/svg" version="1.1" xmlns:xlink="http://www.w3.org/1999/xlink" xmlns:avocode="https://avocode.com/" viewBox="0 0 22 24"><defs><path d="M1642.29233,635.93938c-0.09476,0.03167 -0.19379,0.04524 -0.29282,0.04524c-0.09903,0 -0.19806,-0.01357 -0.29297,-0.04524c-10.70663,-3.47264 -10.53879,-11.70415 -10.41611,-17.71154c0.01328,-0.64839 0.02563,-1.25983 0.02563,-1.84866c0,-0.46292 0.40054,-0.83687 0.89447,-0.83687c3.82553,0 6.73782,-1.02837 9.16534,-3.23968c0.34729,-0.31364 0.89996,-0.31515 1.24725,0c2.42798,2.2113 5.34058,3.23968 9.16626,3.23968c0.49408,0 0.89462,0.37395 0.89462,0.83687c0,0.58883 0.01236,1.19575 0.02563,1.84866c0.12253,6.00739 0.29022,14.23814 -10.41733,17.71154zM1650.92087,618.25423c-0.00748,-0.36189 -0.0145,-0.70795 -0.01953,-1.05551c-3.58322,-0.13797 -6.44882,-1.16031 -8.90167,-3.15524c-2.4527,1.99492 -5.31784,3.01425 -8.90076,3.15524c-0.00504,0.34757 -0.01221,0.69362 -0.01953,1.05551c-0.12329,6.04282 -0.26215,12.88331 8.92029,16.00688c9.18304,-3.12357 9.04419,-9.96406 8.9212,-16.00688zM1646.34491,621.11694c0.34943,0.32646 0.34943,0.85798 0,1.17991l-4.9498,4.63899c-0.17471,0.16059 -0.40375,0.24503 -0.63263,0.24503c-0.22888,0 -0.45776,-0.08444 -0.63248,-0.24503l-2.47482,-2.31836c-0.34943,-0.32646 -0.34943,-0.85497 0,-1.18368c0.34927,-0.32646 0.91553,-0.32646 1.26495,0l1.84235,1.72577l4.31763,-4.04262c0.34927,-0.32646 0.91568,-0.32646 1.2648,0z" id="Path-0"/></defs><desc>Generated with Avocode.</desc><g transform="matrix(1,0,0,1,-1631,-612)"><g><title>Forma 1 copy 7</title><use xlink:href="#Path-0" fill="#4b587f" fill-opacity="1"/></g></g></svg>