<svg id="SVGDoc" width="30" height="52" xmlns="http://www.w3.org/2000/svg" version="1.1" xmlns:xlink="http://www.w3.org/1999/xlink" xmlns:avocode="https://avocode.com/" viewBox="0 0 30 52"><defs><path d="M1066.98761,11143.96555c-0.65903,0.64386 -0.98862,1.40534 -0.98862,2.28444v45.49646c0,0.87985 0.32959,1.64133 0.98862,2.28519c0.66132,0.64236 1.44257,0.96429 2.34421,0.96429c0.90164,0 1.68411,-0.32193 2.34314,-0.96429l23.33054,-22.74785c0.65567,-0.64462 0.9874,-1.40534 0.9874,-2.28519c0,-0.8806 -0.33173,-1.64283 -0.9874,-2.28594l-23.33054,-22.7471c-0.65903,-0.64236 -1.4415,-0.96429 -2.34314,-0.96429c-0.90164,0 -1.68289,0.32193 -2.34421,0.96429z" id="Path-0"/><path d="M1070.72113,11151.78843c-0.44556,0.44181 -0.66803,0.96655 -0.66803,1.57046v31.27792c0,0.60541 0.22247,1.1294 0.66803,1.57196c0.44662,0.44181 0.97458,0.66271 1.58371,0.66271c0.60913,0 1.13815,-0.2209 1.5831,-0.66271l15.76385,-15.63896c0.44327,-0.44332 0.66742,-0.96655 0.66742,-1.57121c0,-0.60617 -0.22415,-1.1294 -0.66742,-1.57121l-15.76385,-15.63896c-0.44495,-0.44181 -0.97397,-0.66271 -1.5831,-0.66271c-0.60913,0 -1.13708,0.2209 -1.58371,0.66271z" id="Path-1"/><path d="M1075.18539,11161.95831c-0.17822,0.18095 -0.26733,0.39431 -0.26733,0.64236v12.7951c0,0.24805 0.08911,0.46216 0.26733,0.64311c0.17868,0.18095 0.39001,0.27066 0.63324,0.27066c0.24368,0 0.45502,-0.08972 0.63324,-0.27066l6.30569,-6.39793c0.17715,-0.1817 0.26688,-0.39506 0.26688,-0.64236c0,-0.24805 -0.08972,-0.46292 -0.26688,-0.64386l-6.30569,-6.39642c-0.17822,-0.18095 -0.38956,-0.27217 -0.63324,-0.27217c-0.24323,0 -0.45456,0.09123 -0.63324,0.27217z" id="Path-2"/><clipPath id="ClipPath1124"><use xlink:href="#Path-0" fill="#ffffff"/></clipPath><mask id="Mask1133" x="-1" y="-1" width="2" height="2"><rect width="21" height="36" x="1070" y="11151" fill="#ffffff"></rect><use xlink:href="#Path-1" fill="#000000"/></mask><filter id="Filter1137" width="51" height="66" x="1055" y="11136" filterUnits="userSpaceOnUse"><feOffset dx="0" dy="0" result="FeOffset1138Out" in="SourceGraphic"></feOffset><feGaussianBlur stdDeviation="2 2" result="FeGaussianBlur1139Out" in="FeOffset1138Out"></feGaussianBlur></filter><clipPath id="ClipPath1143"><use xlink:href="#Path-1" fill="#ffffff"/></clipPath><clipPath id="ClipPath1151"><use xlink:href="#Path-2" fill="#ffffff"/></clipPath></defs><desc>Generated with Avocode.</desc><g transform="matrix(1,0,0,1,-1066,-11143)"><g><title>Forma 1 copy 2</title><use xlink:href="#Path-0" fill="#e6eaf0" fill-opacity="1"/><use xlink:href="#Path-0" fill-opacity="0" fill="#ffffff" stroke-dashoffset="0" stroke-dasharray="" stroke-linejoin="miter" stroke-linecap="butt" stroke-opacity="1" stroke="#dee2e9" stroke-miterlimit="50" stroke-width="2" clip-path="url(&quot;#ClipPath1124&quot;)"/></g><g><title>Forma 1 copy</title><g filter="url(#Filter1137)"><use xlink:href="#Path-1" fill="none" stroke-opacity="0.45" stroke-width="0" mask="url(&quot;#Mask1133&quot;)"/><use xlink:href="#Path-1" fill="#d8dde4" fill-opacity="0.45"/></g><use xlink:href="#Path-1" fill="#ffffff" fill-opacity="1"/><use xlink:href="#Path-1" fill-opacity="0" fill="#ffffff" stroke-dashoffset="0" stroke-dasharray="" stroke-linejoin="miter" stroke-linecap="butt" stroke-opacity="1" stroke="#dee2e9" stroke-miterlimit="50" stroke-width="2" clip-path="url(&quot;#ClipPath1143&quot;)"/></g><g><title>Forma 1 copy 3</title><use xlink:href="#Path-2" fill="#c7cde1" fill-opacity="1"/><use xlink:href="#Path-2" fill-opacity="0" fill="#ffffff" stroke-dashoffset="0" stroke-dasharray="" stroke-linejoin="miter" stroke-linecap="butt" stroke-opacity="1" stroke="#d7dbe4" stroke-miterlimit="50" stroke-width="2" clip-path="url(&quot;#ClipPath1151&quot;)"/></g></g></svg>