<svg xmlns="http://www.w3.org/2000/svg" xmlns:xlink="http://www.w3.org/1999/xlink" width="76" height="96" viewBox="0 0 76 96"><defs><path id="ojjha" d="M1437 8546v3.2c0 .88-.7 1.6-1.58 1.6h-4.88l-4.22 50.12a12.78 12.78 0 0 1 9.07 12.25 12.73 12.73 0 0 1-12.64 12.83h-47.5c-.82 0-1.51-.64-1.58-1.47l-6.2-73.73h-4.89a1.6 1.6 0 0 1-1.58-1.6v-3.2c0-4.42 3.55-8 7.92-8h1.74c.76-3.72 4-6.4 7.76-6.4h47.15a4.7 4.7 0 0 1 3.55-1.6 4.76 4.76 0 0 1 4.71 4.8v4.83a8 8 0 0 1 3.17 6.37zm-9.5-8h3.17v-3.2c0-.89-.71-1.6-1.59-1.6a1.6 1.6 0 0 0-1.58 1.6zm-53.56 0h50.4v-3.2h-45.92a4.76 4.76 0 0 0-4.48 3.2zm50.42 65.74a9.55 9.55 0 0 0-11.1 9.45c-.01 5.3 4.24 9.6 9.49 9.6s9.5-4.3 9.5-9.6a9.57 9.57 0 0 0-7.9-9.45zm3-52.94h-56.72l6.06 71.98h37.68l-.26-.26a14.11 14.11 0 0 1-2.37-3 10.8 10.8 0 0 1-.58-1.16c-.1-.22-.18-.46-.27-.7l-.2-.51-.2-.77c-.04-.17-.1-.33-.13-.5l-.15-.89c-.02-.14-.05-.29-.06-.44a12.76 12.76 0 0 1 10.03-13.9h.02c.34-.06.68-.11 1.03-.15l.33-.04c.26-.03.52-.04.78-.04l.4-.02h.43zm6.47-4.8c0-2.65-2.12-4.8-4.75-4.8h-60.16a4.78 4.78 0 0 0-4.75 4.8v1.6h69.66z"/><path id="ojjhb" d="M1427.5 8613.2c0 2.65-2.13 4.8-4.75 4.8a4.78 4.78 0 0 1-4.75-4.8c0-2.66 2.13-4.8 4.75-4.8a4.78 4.78 0 0 1 4.75 4.8zm-3.17 0c0-.89-.7-1.6-1.58-1.6a1.6 1.6 0 0 0-1.58 1.6c0 .88.7 1.6 1.58 1.6a1.6 1.6 0 0 0 1.58-1.6z"/><path id="ojjhc" d="M1411.62 8571.99l-1.58 6.4a1.59 1.59 0 0 1-1.54 1.2h-6.33a1.6 1.6 0 0 1-1.59-1.6c0-.88.71-1.6 1.59-1.6h2.88l-6.05-9.77-1.82 2.94c-.47.75-1.44.98-2.19.51a1.6 1.6 0 0 1-.5-2.2l3.16-5.12a1.63 1.63 0 0 1 2.7 0l7.35 11.89.85-3.43a1.58 1.58 0 1 1 3.07.78zm-16.98 10.76a1.59 1.59 0 0 1-1.93-1.16l-.85-3.43-5.84 9.44h3.48c.87 0 1.58.71 1.58 1.6 0 .88-.7 1.6-1.58 1.6h-6.33a1.6 1.6 0 0 1-1.34-2.45l7.39-11.95h-2.89a1.6 1.6 0 0 1-1.58-1.6c0-.89.7-1.6 1.58-1.6h6.34c.72 0 1.36.5 1.53 1.2l1.59 6.4a1.6 1.6 0 0 1-1.15 1.95zm21.78 6.45c0 .88-.71 1.6-1.59 1.6h-15.17l2.04 2.07c.6.62.6 1.6 0 2.22-.6.63-1.6.65-2.24.04l-4.75-4.8a1.61 1.61 0 0 1 0-2.26l4.75-4.8c.62-.6 1.59-.6 2.2 0 .63.6.65 1.62.04 2.26l-2.04 2.07h12.21l-1.52-2.32a1.61 1.61 0 0 1 .44-2.22c.73-.49 1.7-.29 2.2.45l3.16 4.8c.17.26.27.57.27.89z"/></defs><g><g transform="translate(-1361 -8530)"><use fill="#b8bdd1" xlink:href="#ojjha"/></g><g transform="translate(-1361 -8530)"><use fill="#4b587f" xlink:href="#ojjhb"/></g><g transform="translate(-1361 -8530)"><use fill="#f78c26" xlink:href="#ojjhc"/></g></g></svg>