<svg xmlns="http://www.w3.org/2000/svg" xmlns:xlink="http://www.w3.org/1999/xlink" width="93" height="93" viewBox="0 0 93 93"><defs><path id="8xida" d="M1444.41 8784.4a1.5 1.5 0 0 1-.85 1.95l-8.3 3.25a1.5 1.5 0 0 1-2.04-1.65l1.42-8.8a1.5 1.5 0 1 1 2.97.48l-.6 3.75a43.12 43.12 0 0 0 10.98-28.88 43.2 43.2 0 0 0-12.74-30.75 43.2 43.2 0 0 0-30.75-12.74c-8.93 0-17.5 2.69-24.8 7.77a1.5 1.5 0 1 1-1.73-2.48 46.22 46.22 0 0 1 26.53-8.3 46.2 46.2 0 0 1 32.88 13.62 46.2 46.2 0 0 1 13.62 32.88 46.1 46.1 0 0 1-10.97 30l2.43-.95a1.5 1.5 0 0 1 1.95.85zm-13.38 8.3a46.22 46.22 0 0 1-26.53 8.3 46.2 46.2 0 0 1-32.88-13.62 46.2 46.2 0 0 1-13.62-32.88 46.1 46.1 0 0 1 10.97-30l-2.69 1.05a1.5 1.5 0 0 1-1.1-2.8l8.56-3.35a1.5 1.5 0 0 1 2.04 1.64l-1.46 9.08a1.5 1.5 0 0 1-2.98-.48l.65-4.02a43.12 43.12 0 0 0-10.98 28.88 43.2 43.2 0 0 0 12.74 30.75 43.2 43.2 0 0 0 30.75 12.74c8.93 0 17.5-2.69 24.8-7.77a1.5 1.5 0 1 1 1.73 2.47z"/><path id="8xidb" d="M1404.44 8738.6a1.5 1.5 0 0 0-1.9.96l-9.65 28.92a1.5 1.5 0 1 0 2.86.96l9.64-28.93a1.5 1.5 0 0 0-.95-1.9z"/><path id="8xidc" d="M1387.02 8764.24h-9.75c.53-1.84 2.1-2.74 4.54-3.98 3-1.53 6.72-3.44 6.72-8.88 0-4.43-3.24-8.03-7.23-8.03s-7.23 3.6-7.23 8.03a1.5 1.5 0 1 0 3.01 0c0-2.76 1.9-5.02 4.22-5.02 2.33 0 4.22 2.26 4.22 5.02 0 3.43-1.93 4.59-5.08 6.2-2.84 1.44-6.37 3.25-6.37 8.17 0 .83.67 1.5 1.5 1.5h11.45a1.5 1.5 0 1 0 0-3.01z"/><path id="8xidd" d="M1421.53 8765.75c0 .83-.67 1.5-1.5 1.5h-11.45a1.5 1.5 0 0 1-1.51-1.5c0-4.92 3.53-6.73 6.37-8.18 3.15-1.6 5.08-2.76 5.08-6.19 0-2.76-1.9-5.02-4.22-5.02-2.33 0-4.22 2.26-4.22 5.02a1.5 1.5 0 1 1-3.01 0c0-4.43 3.24-8.03 7.23-8.03s7.23 3.6 7.23 8.03c0 5.44-3.73 7.35-6.72 8.88-2.43 1.24-4.01 2.14-4.54 3.98h9.75c.84 0 1.51.67 1.51 1.5zm17.48-4.82c0 .83-.68 1.5-1.51 1.5h-1.7v3.32a1.5 1.5 0 1 1-3.02 0v-3.32h-8.14a1.5 1.5 0 0 1-1.47-1.8l3.21-16.07a1.5 1.5 0 0 1 2.96.6l-2.86 14.26h6.3v-14.56a1.5 1.5 0 0 1 3.01 0v14.56h1.71c.83 0 1.5.67 1.5 1.5z"/></defs><g><g transform="translate(-1358 -8708)"><use fill="#b8bdd1" xlink:href="#8xida"/></g><g transform="translate(-1358 -8708)"><use fill="#b8bdd1" xlink:href="#8xidb"/></g><g transform="translate(-1358 -8708)"><use fill="#f78c26" xlink:href="#8xidc"/></g><g transform="translate(-1358 -8708)"><use fill="#4b587f" xlink:href="#8xidd"/></g></g></svg>