<svg xmlns="http://www.w3.org/2000/svg" xmlns:xlink="http://www.w3.org/1999/xlink" width="207" height="149" viewBox="0 0 207 149"><defs><path id="y6r1a" d="M902 8372.84v62.56c0 7.54-6.1 13.68-13.61 13.68H836.3v8.2a5.7 5.7 0 0 1-9.69 4.04l-12.18-12.24H791.6c-7.5 0-13.62-6.14-13.62-13.68v-.43a61.95 61.95 0 0 1-7.34 2.14v10.77a6.71 6.71 0 0 1-11.44 4.76l-15.3-15.38a61.92 61.92 0 0 1-36.46-23.5 62.6 62.6 0 0 1-12.1-43.95c2.93-28.92 25.9-52.23 54.63-55.42a61.3 61.3 0 0 1 48.41 15.5 62.48 62.48 0 0 1 18.25 29.27h71.77c7.5 0 13.61 6.14 13.61 13.68zm-89.45 3.5a56.04 56.04 0 0 0-18.5-41.6 54.74 54.74 0 0 0-36.96-14.23 55.22 55.22 0 0 0-39.5 16.56 55.82 55.82 0 0 0-15.8 33.4 56.08 56.08 0 0 0 10.82 39.37 55.43 55.43 0 0 0 33.52 21.23c.63.13 1.2.44 1.66.9l15.99 16.06c.05.05.1.1.23.05.14-.06.14-.13.14-.2v-13.44a3.25 3.25 0 0 1 2.67-3.2 55.62 55.62 0 0 0 45.73-54.9zm82.97 59.06v-62.56c0-3.95-3.2-7.16-7.13-7.16H818.1a62.24 62.24 0 0 1-33.65 66.55v3.17c0 3.95 3.2 7.17 7.13 7.17h24.2c.86 0 1.68.34 2.29.95l11.75 11.81v-9.5c0-1.8 1.45-3.26 3.24-3.26h55.32a7.16 7.16 0 0 0 7.13-7.17zm-18.67-46.35l-34.57 34.75a3.22 3.22 0 0 1-4.59 0l-17.27-17.37a3.27 3.27 0 0 1 0-4.6 3.23 3.23 0 0 1 4.58 0l14.99 15.06 32.28-32.45a3.23 3.23 0 0 1 4.58 0 3.27 3.27 0 0 1 0 4.6zm-116.59 15.08c0 1.8-1.45 3.27-3.24 3.27a3.25 3.25 0 1 1 0-6.52 3.25 3.25 0 0 1 3.24 3.25zm17.28-38.22c0 9.04-6.01 17.17-14.62 19.77a3.68 3.68 0 0 0-2.66 3.52v1.04a3.25 3.25 0 1 1-6.48 0v-1.04c0-4.53 2.92-8.45 7.28-9.77a14.2 14.2 0 0 0 10-13.52c0-3.67-1.49-7.2-4.19-9.9a13.87 13.87 0 0 0-9.86-4.22 14.1 14.1 0 0 0-14.04 14.12c0 1.8-1.45 3.26-3.24 3.26a3.25 3.25 0 0 1-3.24-3.26 20.6 20.6 0 0 1 20.52-20.64 20.3 20.3 0 0 1 14.44 6.12 20.5 20.5 0 0 1 6.1 14.52z"/></defs><g><g transform="translate(-695 -8314)"><use fill="#fff" xlink:href="#y6r1a"/></g></g></svg>