<svg xmlns="http://www.w3.org/2000/svg" xmlns:xlink="http://www.w3.org/1999/xlink" width="84" height="116" viewBox="0 0 84 116"><defs><path id="xjk6a" d="M1390 8246.998c3.8.601 6.8 2.2 11 2 4.2-.2 8.6 1.2 11 2"/><path id="xjk6b" d="M1408.181 8266.772l-8.194 30.58s-3.833 3.12-12.61.768c-8.776-2.351-10.64-6.584-10.64-6.584l15.556-58.056s1.839-2.618 8.172-7.35c.548-.89 1.01-1.458.161-3.69-.178-.877-.352-2.03.059-3.302.41-1.274 11.316-31.95 11.929-33.72.612-1.772 3.376-2.829 5.563-2.243 2.186.586 4.276 3.842 3.978 5.213-.299 1.373-6.126 33.409-6.321 34.393-.473 1.637-1.344 2.958-1.705 3.277-.361.318-2.08 1.586-2.09 3.172.196.295 3.956 8.25 3.4 10.453-.555 2.201-7.724 28.83-7.258 27.089z"/><path id="xjk6c" d="M1366.982 8215.24c1.144-4.268 20.883-2.686 44.088 3.53 23.206 6.218 41.091 14.719 39.948 18.987-1.144 4.268-20.883 2.686-44.089-3.531-23.205-6.218-41.09-14.719-39.947-18.986z"/><clipPath id="xjk6d"><use fill="#fff" xlink:href="#xjk6a"/></clipPath><clipPath id="xjk6e"><use fill="#fff" xlink:href="#xjk6b"/></clipPath><clipPath id="xjk6f"><use fill="#fff" xlink:href="#xjk6c"/></clipPath></defs><g><g transform="translate(-1367 -8183)"><use fill="#fff" fill-opacity="0" stroke="#f78c26" stroke-miterlimit="50" stroke-width="6" clip-path="url(&quot;#xjk6d&quot;)" xlink:href="#xjk6a"/></g><g transform="translate(-1367 -8183)"><use fill="#fff" fill-opacity="0" stroke="#b8bdd1" stroke-miterlimit="50" stroke-width="6" clip-path="url(&quot;#xjk6e&quot;)" xlink:href="#xjk6b"/></g><g transform="translate(-1367 -8183)"><use fill="#fff" fill-opacity="0" stroke="#4b587f" stroke-dasharray="4 2" stroke-miterlimit="50" stroke-width="2" clip-path="url(&quot;#xjk6f&quot;)" xlink:href="#xjk6c"/></g></g></svg>