<svg id="SVGDoc" width="70" height="70" xmlns="http://www.w3.org/2000/svg" version="1.1" xmlns:xlink="http://www.w3.org/1999/xlink" xmlns:avocode="https://avocode.com/" viewBox="0 0 70 70"><defs><path d="M1000.99991,10394.99939c19.32999,0 35,15.67063 35,35.00012c0,19.33025 -15.67001,35.00012 -35,35.00012c-19.32999,0 -35,-15.66987 -35,-35.00012c0,-19.32949 15.67001,-35.00012 35,-35.00012z" id="Path-0"/><path d="M993.00003,10413.78755l19.2131,16.2112l-19.2131,16.21346" id="Path-1"/><path d="M962,10469v-78h78v78zM965.99991,10429.99951c0,19.33025 15.67001,35.00012 35,35.00012c19.32999,0 35,-15.66987 35,-35.00012c0,-19.32949 -15.67001,-35.00012 -35,-35.00012c-19.32999,0 -35,15.67063 -35,35.00012z" id="Path-2"/><linearGradient id="LinearGradient1081" gradientUnits="userSpaceOnUse" x1="966" y1="10429.9990234375" x2="1036" y2="10429.9990234375"><stop stop-opacity="1" stop-color="#f47b10" offset="0"></stop><stop stop-opacity="1" stop-color="#ffb33b" offset="0.5"></stop><stop stop-opacity="1" stop-color="#f47b10" offset="1"></stop></linearGradient><filter id="Filter1100" width="200%" height="200%" x="-50%" y="-50%"><feGaussianBlur stdDeviation="2 2" result="FeGaussianBlur1101Out" in="SourceGraphic"></feGaussianBlur></filter><mask id="Mask1102"><use xlink:href="#Path-0" fill="#ffffff"/></mask><clipPath id="ClipPath1112"><use xlink:href="#Path-1" fill="#ffffff"/></clipPath></defs><desc>Generated with Avocode.</desc><g transform="matrix(1,0,0,1,-966,-10395)"><g><title>Ellipse 8</title><use xlink:href="#Path-2" fill="#fd8f25" fill-opacity="0.48" stroke-opacity="0.48" stroke-width="0" stroke="#fd8f25" filter="url(#Filter1100)" mask="url(&quot;#Mask1102&quot;)"/><use xlink:href="#Path-0" fill="#ffffff" fill-opacity="1"/><use xlink:href="#Path-0" fill="url(#LinearGradient1081)"/><use xlink:href="#Path-2" fill="#fd8f25" fill-opacity="0.48" stroke-opacity="0.48" stroke-width="0" stroke="#fd8f25" filter="url(#Filter1100)" mask="url(&quot;#Mask1102&quot;)"/></g><g><title>Rectangle 12 copy</title><use xlink:href="#Path-1" fill="#ffffff" fill-opacity="1"/><use xlink:href="#Path-1" fill-opacity="0" fill="#ffffff" stroke-linejoin="round" stroke-linecap="round" stroke-opacity="1" stroke="#ffffff" stroke-miterlimit="50" stroke-width="4" clip-path="url(&quot;#ClipPath1112&quot;)"/></g></g></svg>